<svg xmlns="http://www.w3.org/2000/svg" xmlns:xlink="http://www.w3.org/1999/xlink" width="211" height="185" viewBox="0 0 211 185">
  <defs>
    <clipPath id="clip-path">
      <rect width="211" height="185" fill="none"/>
    </clipPath>
  </defs>
  <g id="small_dots" opacity="0.29" clip-path="url(#clip-path)">
    <g transform="translate(-116 -1036)">
      <circle id="Ellipse_4" data-name="Ellipse 4" cx="10" cy="10" r="10" transform="translate(116 1036)" fill="#f7c331"/>
    </g>
    <g transform="translate(-78 -1036)">
      <circle id="Ellipse_4-2" data-name="Ellipse 4" cx="10" cy="10" r="10" transform="translate(116 1036)" fill="#f7c331"/>
    </g>
    <g transform="translate(-40 -1036)">
      <circle id="Ellipse_4-3" data-name="Ellipse 4" cx="10" cy="10" r="10" transform="translate(116 1036)" fill="#f7c331"/>
    </g>
    <g transform="translate(-2 -1036)">
      <circle id="Ellipse_4-4" data-name="Ellipse 4" cx="10" cy="10" r="10" transform="translate(116 1036)" fill="#f7c331"/>
    </g>
    <g transform="translate(36 -1036)">
      <circle id="Ellipse_4-5" data-name="Ellipse 4" cx="10" cy="10" r="10" transform="translate(116 1036)" fill="#f7c331"/>
    </g>
    <g transform="translate(74 -1036)">
      <circle id="Ellipse_4-6" data-name="Ellipse 4" cx="10" cy="10" r="10" transform="translate(116 1036)" fill="#f7c331"/>
    </g>
    <g transform="translate(-116 -997)">
      <circle id="Ellipse_4-7" data-name="Ellipse 4" cx="10" cy="10" r="10" transform="translate(116 1036)" fill="#f7c331"/>
    </g>
    <g transform="translate(-78 -997)">
      <circle id="Ellipse_4-8" data-name="Ellipse 4" cx="10" cy="10" r="10" transform="translate(116 1036)" fill="#f7c331"/>
    </g>
    <g transform="translate(-40 -997)">
      <circle id="Ellipse_4-9" data-name="Ellipse 4" cx="10" cy="10" r="10" transform="translate(116 1036)" fill="#f7c331"/>
    </g>
    <g transform="translate(-2 -997)">
      <circle id="Ellipse_4-10" data-name="Ellipse 4" cx="10" cy="10" r="10" transform="translate(116 1036)" fill="#f7c331"/>
    </g>
    <g transform="translate(36 -997)">
      <circle id="Ellipse_4-11" data-name="Ellipse 4" cx="10" cy="10" r="10" transform="translate(116 1036)" fill="#f7c331"/>
    </g>
    <g transform="translate(74 -997)">
      <circle id="Ellipse_4-12" data-name="Ellipse 4" cx="10" cy="10" r="10" transform="translate(116 1036)" fill="#f7c331"/>
    </g>
    <g transform="translate(-116 -958)">
      <circle id="Ellipse_4-13" data-name="Ellipse 4" cx="10" cy="10" r="10" transform="translate(116 1036)" fill="#f7c331"/>
    </g>
    <g transform="translate(-78 -958)">
      <circle id="Ellipse_4-14" data-name="Ellipse 4" cx="10" cy="10" r="10" transform="translate(116 1036)" fill="#f7c331"/>
    </g>
    <g transform="translate(-40 -958)">
      <circle id="Ellipse_4-15" data-name="Ellipse 4" cx="10" cy="10" r="10" transform="translate(116 1036)" fill="#f7c331"/>
    </g>
    <g transform="translate(-2 -958)">
      <circle id="Ellipse_4-16" data-name="Ellipse 4" cx="10" cy="10" r="10" transform="translate(116 1036)" fill="#f7c331"/>
    </g>
    <g transform="translate(36 -958)">
      <circle id="Ellipse_4-17" data-name="Ellipse 4" cx="10" cy="10" r="10" transform="translate(116 1036)" fill="#f7c331"/>
    </g>
    <g transform="translate(74 -958)">
      <circle id="Ellipse_4-18" data-name="Ellipse 4" cx="10" cy="10" r="10" transform="translate(116 1036)" fill="#f7c331"/>
    </g>
    <g transform="translate(-116 -919)">
      <circle id="Ellipse_4-19" data-name="Ellipse 4" cx="10" cy="10" r="10" transform="translate(116 1036)" fill="#f7c331"/>
    </g>
    <g transform="translate(-78 -919)">
      <circle id="Ellipse_4-20" data-name="Ellipse 4" cx="10" cy="10" r="10" transform="translate(116 1036)" fill="#f7c331"/>
    </g>
    <g transform="translate(-40 -919)">
      <circle id="Ellipse_4-21" data-name="Ellipse 4" cx="10" cy="10" r="10" transform="translate(116 1036)" fill="#f7c331"/>
    </g>
    <g transform="translate(-2 -919)">
      <circle id="Ellipse_4-22" data-name="Ellipse 4" cx="10" cy="10" r="10" transform="translate(116 1036)" fill="#f7c331"/>
    </g>
    <g transform="translate(36 -919)">
      <circle id="Ellipse_4-23" data-name="Ellipse 4" cx="10" cy="10" r="10" transform="translate(116 1036)" fill="#f7c331"/>
    </g>
    <g transform="translate(74 -919)">
      <circle id="Ellipse_4-24" data-name="Ellipse 4" cx="10" cy="10" r="10" transform="translate(116 1036)" fill="#f7c331"/>
    </g>
    <g transform="translate(-116 -880)">
      <circle id="Ellipse_4-25" data-name="Ellipse 4" cx="10" cy="10" r="10" transform="translate(116 1036)" fill="#f7c331"/>
    </g>
    <g transform="translate(-78 -880)">
      <circle id="Ellipse_4-26" data-name="Ellipse 4" cx="10" cy="10" r="10" transform="translate(116 1036)" fill="#f7c331"/>
    </g>
    <g transform="translate(-40 -880)">
      <circle id="Ellipse_4-27" data-name="Ellipse 4" cx="10" cy="10" r="10" transform="translate(116 1036)" fill="#f7c331"/>
    </g>
    <g transform="translate(-2 -880)">
      <circle id="Ellipse_4-28" data-name="Ellipse 4" cx="10" cy="10" r="10" transform="translate(116 1036)" fill="#f7c331"/>
    </g>
    <g transform="translate(36 -880)">
      <circle id="Ellipse_4-29" data-name="Ellipse 4" cx="10" cy="10" r="10" transform="translate(116 1036)" fill="#f7c331"/>
    </g>
    <g transform="translate(74 -880)">
      <circle id="Ellipse_4-30" data-name="Ellipse 4" cx="10" cy="10" r="10" transform="translate(116 1036)" fill="#f7c331"/>
    </g>
  </g>
</svg>
